{
  "version": "0.6.2b",
  "modules": [
    {
      "plugin": "Befaco",
      "version": "0.6.0",
      "model": "Rampage",
      "params": [
        {
          "paramId": 0,
          "value": 1.77482963
        },
        {
          "paramId": 2,
          "value": -0.0341199636
        },
        {
          "paramId": 4,
          "value": 0.0
        },
        {
          "paramId": 6,
          "value": 0.0
        },
        {
          "paramId": 8,
          "value": 0.624999404
        },
        {
          "paramId": 10,
          "value": 1.0
        },
        {
          "paramId": 1,
          "value": 0.0
        },
        {
          "paramId": 3,
          "value": 0.264802814
        },
        {
          "paramId": 5,
          "value": 0.0
        },
        {
          "paramId": 7,
          "value": 0.300000221
        },
        {
          "paramId": 9,
          "value": 0.0386544093
        },
        {
          "paramId": 11,
          "value": 1.0
        },
        {
          "paramId": 12,
          "value": 0.513788998
        }
      ],
      "pos": [
        55,
        1
      ]
    },
    {
      "plugin": "Befaco",
      "version": "0.6.0",
      "model": "DualAtenuverter",
      "params": [
        {
          "paramId": 0,
          "value": 0.177000374
        },
        {
          "paramId": 1,
          "value": 3.59999561
        },
        {
          "paramId": 2,
          "value": -0.0149998385
        },
        {
          "paramId": 3,
          "value": 1.18000627
        }
      ],
      "pos": [
        32,
        0
      ]
    },
    {
      "plugin": "AudibleInstruments",
      "version": "0.6.0",
      "model": "Branches",
      "params": [
        {
          "paramId": 0,
          "value": 0.0705008879
        },
        {
          "paramId": 2,
          "value": 0.0
        },
        {
          "paramId": 1,
          "value": 0.111000046
        },
        {
          "paramId": 3,
          "value": 0.0
        }
      ],
      "pos": [
        37,
        0
      ]
    },
    {
      "plugin": "AudibleInstruments",
      "version": "0.6.0",
      "model": "Veils",
      "params": [
        {
          "paramId": 0,
          "value": 0.338999748
        },
        {
          "paramId": 1,
          "value": 0.399000168
        },
        {
          "paramId": 2,
          "value": 0.530999422
        },
        {
          "paramId": 3,
          "value": 0.522000253
        },
        {
          "paramId": 4,
          "value": 1.0
        },
        {
          "paramId": 5,
          "value": 0.996999979
        },
        {
          "paramId": 6,
          "value": 1.0
        },
        {
          "paramId": 7,
          "value": 0.372999698
        }
      ],
      "pos": [
        63,
        2
      ]
    },
    {
      "plugin": "AudibleInstruments",
      "version": "0.6.0",
      "model": "Kinks",
      "params": [],
      "pos": [
        28,
        0
      ]
    },
    {
      "plugin": "AudibleInstruments",
      "version": "0.6.0",
      "model": "Kinks",
      "params": [],
      "pos": [
        24,
        0
      ]
    },
    {
      "plugin": "AudibleInstruments",
      "version": "0.6.0",
      "model": "Kinks",
      "params": [],
      "pos": [
        43,
        0
      ]
    },
    {
      "plugin": "Befaco",
      "version": "0.6.0",
      "model": "DualAtenuverter",
      "params": [
        {
          "paramId": 0,
          "value": 0.0
        },
        {
          "paramId": 1,
          "value": 0.0
        },
        {
          "paramId": 2,
          "value": 0.322000504
        },
        {
          "paramId": 3,
          "value": 1.99000311
        }
      ],
      "pos": [
        47,
        0
      ]
    },
    {
      "plugin": "ML_modules",
      "version": "0.6.2",
      "model": "Quantum",
      "params": [
        {
          "paramId": 0,
          "value": 0.0
        },
        {
          "paramId": 1,
          "value": 0.0
        },
        {
          "paramId": 2,
          "value": 0.0
        },
        {
          "paramId": 3,
          "value": 0.0
        },
        {
          "paramId": 4,
          "value": 0.0
        },
        {
          "paramId": 5,
          "value": 0.0
        },
        {
          "paramId": 6,
          "value": 0.0
        },
        {
          "paramId": 7,
          "value": 0.0
        },
        {
          "paramId": 8,
          "value": 0.0
        },
        {
          "paramId": 9,
          "value": 0.0
        },
        {
          "paramId": 10,
          "value": 0.0
        },
        {
          "paramId": 11,
          "value": 0.0
        }
      ],
      "data": {
        "scale": [
          1,
          0,
          1,
          1,
          0,
          1,
          0,
          0,
          0,
          1,
          1,
          0
        ],
        "mode": 0
      },
      "pos": [
        52,
        0
      ]
    },
    {
      "plugin": "Core",
      "version": "0.6.2b",
      "model": "AudioInterface",
      "params": [],
      "data": {
        "audio": {
          "driver": 5,
          "deviceName": "Apple Inc.: Built-in Output",
          "offset": 0,
          "maxChannels": 8,
          "sampleRate": 44100,
          "blockSize": 256
        }
      },
      "pos": [
        0,
        2
      ]
    },
    {
      "plugin": "Befaco",
      "version": "0.6.0",
      "model": "EvenVCO",
      "params": [
        {
          "paramId": 0,
          "value": -5.0
        },
        {
          "paramId": 1,
          "value": -0.209997743
        },
        {
          "paramId": 2,
          "value": -0.102999963
        }
      ],
      "pos": [
        47,
        1
      ]
    },
    {
      "plugin": "ML_modules",
      "version": "0.6.2",
      "model": "SeqSwitch",
      "params": [
        {
          "paramId": 0,
          "value": 8.0
        },
        {
          "paramId": 1,
          "value": 0.0
        },
        {
          "paramId": 2,
          "value": 0.0
        },
        {
          "paramId": 3,
          "value": 0.0
        },
        {
          "paramId": 4,
          "value": 0.0
        },
        {
          "paramId": 5,
          "value": 0.0
        },
        {
          "paramId": 6,
          "value": 0.0
        },
        {
          "paramId": 7,
          "value": 0.0
        },
        {
          "paramId": 8,
          "value": 0.0
        }
      ],
      "data": {
        "inputRange": 0
      },
      "pos": [
        68,
        0
      ]
    },
    {
      "plugin": "ML_modules",
      "version": "0.6.2",
      "model": "SeqSwitch2",
      "params": [
        {
          "paramId": 0,
          "value": 8.0
        },
        {
          "paramId": 1,
          "value": 0.0
        },
        {
          "paramId": 2,
          "value": 0.0
        },
        {
          "paramId": 3,
          "value": 0.0
        },
        {
          "paramId": 4,
          "value": 0.0
        },
        {
          "paramId": 5,
          "value": 0.0
        },
        {
          "paramId": 6,
          "value": 0.0
        },
        {
          "paramId": 7,
          "value": 0.0
        },
        {
          "paramId": 8,
          "value": 0.0
        }
      ],
      "data": {
        "outMode": 0,
        "inputRange": 0
      },
      "pos": [
        60,
        0
      ]
    },
    {
      "plugin": "Core",
      "version": "0.6.2b",
      "model": "MIDIToCVInterface",
      "params": [],
      "data": {
        "divisions": [
          24,
          6
        ],
        "midi": {
          "driver": 1,
          "channel": -1
        }
      },
      "pos": [
        16,
        0
      ]
    },
    {
      "plugin": "Befaco",
      "version": "0.6.0",
      "model": "Mixer",
      "params": [
        {
          "paramId": 0,
          "value": 1.0
        },
        {
          "paramId": 1,
          "value": 1.0
        },
        {
          "paramId": 2,
          "value": 0.0
        },
        {
          "paramId": 3,
          "value": 0.0
        }
      ],
      "pos": [
        16,
        2
      ]
    },
    {
      "plugin": "SonusModular",
      "version": "0.6.1",
      "model": "Deathcrush",
      "params": [
        {
          "paramId": 0,
          "value": 0.516000092
        },
        {
          "paramId": 1,
          "value": 0.22050032
        },
        {
          "paramId": 2,
          "value": 1.19799995
        }
      ],
      "pos": [
        87,
        1
      ]
    },
    {
      "plugin": "AS",
      "version": "0.6.9",
      "model": "KillGate",
      "params": [
        {
          "paramId": 0,
          "value": 0.0
        },
        {
          "paramId": 1,
          "value": 1.0
        },
        {
          "paramId": 2,
          "value": 0.0
        },
        {
          "paramId": 3,
          "value": 1.18899989
        }
      ],
      "pos": [
        10,
        2
      ]
    },
    {
      "plugin": "Core",
      "version": "0.6.2b",
      "model": "MIDIToCVInterface",
      "params": [],
      "data": {
        "divisions": [
          24,
          6
        ],
        "midi": {
          "driver": 1,
          "deviceName": "USB Uno MIDI Interface",
          "channel": -1
        }
      },
      "pos": [
        0,
        0
      ]
    },
    {
      "plugin": "Core",
      "version": "0.6.2b",
      "model": "MIDIToCVInterface",
      "params": [],
      "data": {
        "divisions": [
          24,
          6
        ],
        "midi": {
          "driver": 1,
          "deviceName": "USB Uno MIDI Interface",
          "channel": -1
        }
      },
      "pos": [
        8,
        0
      ]
    },
    {
      "plugin": "JW-Modules",
      "version": "0.6.2",
      "model": "Quantizer",
      "params": [
        {
          "paramId": 0,
          "value": 7.0
        },
        {
          "paramId": 1,
          "value": 10.0
        }
      ],
      "data": {},
      "pos": [
        87,
        2
      ]
    },
    {
      "plugin": "PvC",
      "version": "0.6.0",
      "model": "PlainVoidCanvas",
      "params": [],
      "pos": [
        101,
        1
      ]
    },
    {
      "plugin": "AudibleInstruments",
      "version": "0.6.0",
      "model": "Kinks",
      "params": [],
      "pos": [
        0,
        1
      ]
    },
    {
      "plugin": "ML_modules",
      "version": "0.6.2",
      "model": "ShiftRegister",
      "params": [],
      "pos": [
        4,
        1
      ]
    },
    {
      "plugin": "AudibleInstruments",
      "version": "0.6.0",
      "model": "Elements",
      "params": [
        {
          "paramId": 0,
          "value": 0.262895644
        },
        {
          "paramId": 1,
          "value": 0.949715793
        },
        {
          "paramId": 2,
          "value": 0.773372114
        },
        {
          "paramId": 3,
          "value": 0.0734978914
        },
        {
          "paramId": 4,
          "value": -16.6424923
        },
        {
          "paramId": 5,
          "value": 1.52847791
        },
        {
          "paramId": 6,
          "value": -0.261785984
        },
        {
          "paramId": 7,
          "value": 0.986993134
        },
        {
          "paramId": 8,
          "value": 0.998876929
        },
        {
          "paramId": 9,
          "value": 0.506405294
        },
        {
          "paramId": 10,
          "value": 0.0413095951
        },
        {
          "paramId": 11,
          "value": 0.0504783988
        },
        {
          "paramId": 12,
          "value": 0.310370743
        },
        {
          "paramId": 13,
          "value": 0.126722455
        },
        {
          "paramId": 14,
          "value": 0.123568475
        },
        {
          "paramId": 15,
          "value": 0.620891809
        },
        {
          "paramId": 16,
          "value": 1.79922175
        },
        {
          "paramId": 17,
          "value": 0.990043283
        },
        {
          "paramId": 18,
          "value": 0.594874859
        },
        {
          "paramId": 19,
          "value": -0.335009813
        },
        {
          "paramId": 20,
          "value": 0.94160223
        },
        {
          "paramId": 21,
          "value": -0.272512197
        },
        {
          "paramId": 22,
          "value": -0.776788831
        },
        {
          "paramId": 23,
          "value": -0.736937761
        },
        {
          "paramId": 24,
          "value": -0.0964105129
        },
        {
          "paramId": 25,
          "value": 0.30966568
        },
        {
          "paramId": 26,
          "value": -0.425348759
        },
        {
          "paramId": 27,
          "value": 0.0
        }
      ],
      "data": {
        "model": 1
      },
      "pos": [
        8,
        1
      ]
    },
    {
      "plugin": "Befaco",
      "version": "0.6.0",
      "model": "DualAtenuverter",
      "params": [
        {
          "paramId": 0,
          "value": -0.174000174
        },
        {
          "paramId": 1,
          "value": 3.48000002
        },
        {
          "paramId": 2,
          "value": 0.0760002509
        },
        {
          "paramId": 3,
          "value": 1.33000112
        }
      ],
      "pos": [
        42,
        1
      ]
    },
    {
      "plugin": "AudibleInstruments",
      "version": "0.6.0",
      "model": "Rings",
      "params": [
        {
          "paramId": 0,
          "value": 0.0
        },
        {
          "paramId": 1,
          "value": 0.0
        },
        {
          "paramId": 2,
          "value": 17.3349209
        },
        {
          "paramId": 3,
          "value": 0.439035416
        },
        {
          "paramId": 4,
          "value": 0.430437207
        },
        {
          "paramId": 5,
          "value": 0.176598966
        },
        {
          "paramId": 6,
          "value": 0.0558980107
        },
        {
          "paramId": 7,
          "value": 0.731400371
        },
        {
          "paramId": 8,
          "value": -0.819667101
        },
        {
          "paramId": 9,
          "value": -0.753630757
        },
        {
          "paramId": 10,
          "value": 0.692758441
        },
        {
          "paramId": 11,
          "value": 0.104913235
        }
      ],
      "data": {
        "polyphony": 0,
        "model": 0,
        "easterEgg": false
      },
      "pos": [
        73,
        1
      ]
    },
    {
      "plugin": "AS",
      "version": "0.6.9",
      "model": "DelayPlusFx",
      "params": [
        {
          "paramId": 0,
          "value": 2.5772562
        },
        {
          "paramId": 1,
          "value": 0.575496852
        },
        {
          "paramId": 2,
          "value": 0.263635933
        },
        {
          "paramId": 3,
          "value": 0.797758996
        },
        {
          "paramId": 4,
          "value": 0.0
        }
      ],
      "data": {
        "as_FxBypass": [
          false
        ]
      },
      "pos": [
        86,
        0
      ]
    },
    {
      "plugin": "Befaco",
      "version": "0.6.0",
      "model": "SpringReverb",
      "params": [
        {
          "paramId": 0,
          "value": 0.111000538
        },
        {
          "paramId": 1,
          "value": 0.362999916
        },
        {
          "paramId": 2,
          "value": 0.308999866
        },
        {
          "paramId": 3,
          "value": 0.459999859
        }
      ],
      "pos": [
        21,
        2
      ]
    },
    {
      "plugin": "Autinn",
      "version": "0.6.5",
      "model": "Oxcart",
      "params": [
        {
          "paramId": 0,
          "value": -1.32304931
        }
      ],
      "pos": [
        94,
        0
      ]
    },
    {
      "plugin": "AS",
      "version": "0.6.9",
      "model": "DelayPlusStereoFx",
      "params": [
        {
          "paramId": 0,
          "value": 4.73542118
        },
        {
          "paramId": 1,
          "value": 0.790021122
        },
        {
          "paramId": 2,
          "value": 0.355957299
        },
        {
          "paramId": 3,
          "value": 1.72520924
        },
        {
          "paramId": 4,
          "value": 0.946429491
        },
        {
          "paramId": 5,
          "value": 0.231532514
        },
        {
          "paramId": 6,
          "value": 0.0925819278
        },
        {
          "paramId": 7,
          "value": 0.591808796
        },
        {
          "paramId": 8,
          "value": 0.614499986
        },
        {
          "paramId": 9,
          "value": 0.0
        }
      ],
      "data": {
        "as_FxBypass": [
          false
        ]
      },
      "pos": [
        93,
        1
      ]
    },
    {
      "plugin": "CharredDesert",
      "version": "0.6.3",
      "model": "Oscar^2",
      "params": [
        {
          "paramId": 0,
          "value": 3.0
        },
        {
          "paramId": 2,
          "value": 3.9078939
        },
        {
          "paramId": 4,
          "value": -3.0
        },
        {
          "paramId": 6,
          "value": 0.527849555
        },
        {
          "paramId": 8,
          "value": 4.62908411
        },
        {
          "paramId": 11,
          "value": 0.674300194
        },
        {
          "paramId": 1,
          "value": 0.0
        },
        {
          "paramId": 3,
          "value": 6.52074099
        },
        {
          "paramId": 5,
          "value": -2.0
        },
        {
          "paramId": 7,
          "value": -0.615469694
        },
        {
          "paramId": 9,
          "value": 3.34381342
        },
        {
          "paramId": 12,
          "value": 0.406883836
        },
        {
          "paramId": 10,
          "value": 8.47174644
        }
      ],
      "pos": [
        76,
        0
      ]
    },
    {
      "plugin": "AudibleInstruments",
      "version": "0.6.0",
      "model": "Veils",
      "params": [
        {
          "paramId": 0,
          "value": 0.482500166
        },
        {
          "paramId": 1,
          "value": 0.470499903
        },
        {
          "paramId": 2,
          "value": 0.486000746
        },
        {
          "paramId": 3,
          "value": 0.362999529
        },
        {
          "paramId": 4,
          "value": 1.0
        },
        {
          "paramId": 5,
          "value": 0.996999979
        },
        {
          "paramId": 6,
          "value": 0.0279999711
        },
        {
          "paramId": 7,
          "value": 0.0104999999
        }
      ],
      "pos": [
        75,
        2
      ]
    },
    {
      "plugin": "AS",
      "version": "0.6.9",
      "model": "Mixer8ch",
      "params": [
        {
          "paramId": 9,
          "value": -1.0
        },
        {
          "paramId": 10,
          "value": 0.0
        },
        {
          "paramId": 11,
          "value": -0.987999976
        },
        {
          "paramId": 12,
          "value": 1.0
        },
        {
          "paramId": 13,
          "value": 0.0
        },
        {
          "paramId": 14,
          "value": -1.0
        },
        {
          "paramId": 15,
          "value": 1.0
        },
        {
          "paramId": 16,
          "value": 1.0
        },
        {
          "paramId": 1,
          "value": 0.800000012
        },
        {
          "paramId": 2,
          "value": 0.989000678
        },
        {
          "paramId": 3,
          "value": 0.732000172
        },
        {
          "paramId": 4,
          "value": 0.723000348
        },
        {
          "paramId": 5,
          "value": 0.888000071
        },
        {
          "paramId": 6,
          "value": 0.435000509
        },
        {
          "paramId": 7,
          "value": 0.506999791
        },
        {
          "paramId": 8,
          "value": 1.0
        },
        {
          "paramId": 17,
          "value": 0.0
        },
        {
          "paramId": 18,
          "value": 0.0
        },
        {
          "paramId": 19,
          "value": 0.0
        },
        {
          "paramId": 20,
          "value": 0.0
        },
        {
          "paramId": 21,
          "value": 0.0
        },
        {
          "paramId": 22,
          "value": 0.0
        },
        {
          "paramId": 23,
          "value": 0.0
        },
        {
          "paramId": 24,
          "value": 0.0
        },
        {
          "paramId": 0,
          "value": 1.0
        },
        {
          "paramId": 25,
          "value": 0.0
        }
      ],
      "data": {
        "as_MixerMutes": [
          0,
          0,
          0,
          0,
          0,
          0,
          0,
          0,
          0
        ]
      },
      "pos": [
        37,
        2
      ]
    },
    {
      "plugin": "Befaco",
      "version": "0.6.0",
      "model": "SpringReverb",
      "params": [
        {
          "paramId": 0,
          "value": 0.108060375
        },
        {
          "paramId": 1,
          "value": 0.384776026
        },
        {
          "paramId": 2,
          "value": 0.401107311
        },
        {
          "paramId": 3,
          "value": 0.547140718
        }
      ],
      "pos": [
        29,
        2
      ]
    },
    {
      "plugin": "VultModulesFree",
      "version": "0.6.7",
      "model": "Nopskate",
      "params": [
        {
          "paramId": 0,
          "value": 0.790500402
        },
        {
          "paramId": 1,
          "value": 0.334999949
        },
        {
          "paramId": 2,
          "value": 0.892500043
        },
        {
          "paramId": 3,
          "value": 0.36499998
        },
        {
          "paramId": 4,
          "value": 0.0
        },
        {
          "paramId": 5,
          "value": 0.0
        },
        {
          "paramId": 6,
          "value": 0.0
        },
        {
          "paramId": 7,
          "value": 0.0
        }
      ],
      "pos": [
        95,
        2
      ]
    },
    {
      "plugin": "JW-Modules",
      "version": "0.6.2",
      "model": "Quantizer",
      "params": [
        {
          "paramId": 0,
          "value": 7.0
        },
        {
          "paramId": 1,
          "value": 10.0
        }
      ],
      "data": {},
      "pos": [
        91,
        2
      ]
    },
    {
      "plugin": "com-soundchasing-stochasm",
      "version": "0.6.0",
      "model": "Resonator",
      "params": [
        {
          "paramId": 0,
          "value": 6.94999599
        },
        {
          "paramId": 1,
          "value": 5.0
        },
        {
          "paramId": 2,
          "value": 5.0
        },
        {
          "paramId": 3,
          "value": 0.0
        },
        {
          "paramId": 4,
          "value": 3.37999749
        },
        {
          "paramId": 5,
          "value": 5.0
        },
        {
          "paramId": 6,
          "value": 5.0
        },
        {
          "paramId": 7,
          "value": 0.0
        }
      ],
      "pos": [
        99,
        0
      ]
    }
  ],
  "wires": [
    {
      "color": "#c9b70e",
      "outputModuleId": 12,
      "outputId": 0,
      "inputModuleId": 11,
      "inputId": 0
    },
    {
      "color": "#0986ad",
      "outputModuleId": 12,
      "outputId": 1,
      "inputModuleId": 11,
      "inputId": 1
    },
    {
      "color": "#c91847",
      "outputModuleId": 12,
      "outputId": 5,
      "inputModuleId": 11,
      "inputId": 5
    },
    {
      "color": "#0c8e15",
      "outputModuleId": 12,
      "outputId": 6,
      "inputModuleId": 11,
      "inputId": 6
    },
    {
      "color": "#0986ad",
      "outputModuleId": 12,
      "outputId": 2,
      "inputModuleId": 11,
      "inputId": 2
    },
    {
      "color": "#c9b70e",
      "outputModuleId": 12,
      "outputId": 3,
      "inputModuleId": 11,
      "inputId": 7
    },
    {
      "color": "#c91847",
      "outputModuleId": 12,
      "outputId": 7,
      "inputModuleId": 11,
      "inputId": 3
    },
    {
      "color": "#0986ad",
      "outputModuleId": 8,
      "outputId": 0,
      "inputModuleId": 12,
      "inputId": 0
    },
    {
      "color": "#c91847",
      "outputModuleId": 7,
      "outputId": 1,
      "inputModuleId": 8,
      "inputId": 0
    },
    {
      "color": "#0c8e15",
      "outputModuleId": 6,
      "outputId": 6,
      "inputModuleId": 7,
      "inputId": 1
    },
    {
      "color": "#0986ad",
      "outputModuleId": 2,
      "outputId": 0,
      "inputModuleId": 6,
      "inputId": 4
    },
    {
      "color": "#0c8e15",
      "outputModuleId": 5,
      "outputId": 6,
      "inputModuleId": 1,
      "inputId": 0
    },
    {
      "color": "#c9b70e",
      "outputModuleId": 4,
      "outputId": 6,
      "inputModuleId": 1,
      "inputId": 1
    },
    {
      "color": "#0c8e15",
      "outputModuleId": 18,
      "outputId": 1,
      "inputModuleId": 21,
      "inputId": 3
    },
    {
      "color": "#c91847",
      "outputModuleId": 2,
      "outputId": 1,
      "inputModuleId": 12,
      "inputId": 5
    },
    {
      "color": "#0c8e15",
      "outputModuleId": 13,
      "outputId": 4,
      "inputModuleId": 16,
      "inputId": 1
    },
    {
      "color": "#0986ad",
      "outputModuleId": 13,
      "outputId": 4,
      "inputModuleId": 16,
      "inputId": 4
    },
    {
      "color": "#c9b70e",
      "outputModuleId": 17,
      "outputId": 1,
      "inputModuleId": 16,
      "inputId": 2
    },
    {
      "color": "#c91847",
      "outputModuleId": 17,
      "outputId": 1,
      "inputModuleId": 16,
      "inputId": 5
    },
    {
      "color": "#c91847",
      "outputModuleId": 18,
      "outputId": 0,
      "inputModuleId": 28,
      "inputId": 0
    },
    {
      "color": "#0c8e15",
      "outputModuleId": 18,
      "outputId": 0,
      "inputModuleId": 30,
      "inputId": 9
    },
    {
      "color": "#c9b70e",
      "outputModuleId": 21,
      "outputId": 6,
      "inputModuleId": 22,
      "inputId": 0
    },
    {
      "color": "#c91847",
      "outputModuleId": 18,
      "outputId": 1,
      "inputModuleId": 21,
      "inputId": 4
    },
    {
      "color": "#0c8e15",
      "outputModuleId": 18,
      "outputId": 1,
      "inputModuleId": 22,
      "inputId": 1
    },
    {
      "color": "#0986ad",
      "outputModuleId": 22,
      "outputId": 0,
      "inputModuleId": 23,
      "inputId": 6
    },
    {
      "color": "#c9b70e",
      "outputModuleId": 22,
      "outputId": 1,
      "inputModuleId": 23,
      "inputId": 10
    },
    {
      "color": "#c91847",
      "outputModuleId": 22,
      "outputId": 2,
      "inputModuleId": 23,
      "inputId": 13
    },
    {
      "color": "#0986ad",
      "outputModuleId": 22,
      "outputId": 3,
      "inputModuleId": 23,
      "inputId": 15
    },
    {
      "color": "#c9b70e",
      "outputModuleId": 22,
      "outputId": 4,
      "inputModuleId": 23,
      "inputId": 12
    },
    {
      "color": "#c91847",
      "outputModuleId": 22,
      "outputId": 5,
      "inputModuleId": 23,
      "inputId": 8
    },
    {
      "color": "#0c8e15",
      "outputModuleId": 22,
      "outputId": 6,
      "inputModuleId": 23,
      "inputId": 11
    },
    {
      "color": "#0986ad",
      "outputModuleId": 22,
      "outputId": 7,
      "inputModuleId": 23,
      "inputId": 9
    },
    {
      "color": "#c9b70e",
      "outputModuleId": 23,
      "outputId": 0,
      "inputModuleId": 24,
      "inputId": 0
    },
    {
      "color": "#c91847",
      "outputModuleId": 23,
      "outputId": 1,
      "inputModuleId": 24,
      "inputId": 1
    },
    {
      "color": "#0c8e15",
      "outputModuleId": 24,
      "outputId": 0,
      "inputModuleId": 10,
      "inputId": 1
    },
    {
      "color": "#0986ad",
      "outputModuleId": 3,
      "outputId": 0,
      "inputModuleId": 32,
      "inputId": 1
    },
    {
      "color": "#c9b70e",
      "outputModuleId": 3,
      "outputId": 1,
      "inputModuleId": 32,
      "inputId": 4
    },
    {
      "color": "#c91847",
      "outputModuleId": 3,
      "outputId": 2,
      "inputModuleId": 32,
      "inputId": 7
    },
    {
      "color": "#0c8e15",
      "outputModuleId": 3,
      "outputId": 3,
      "inputModuleId": 32,
      "inputId": 10
    },
    {
      "color": "#0986ad",
      "outputModuleId": 31,
      "outputId": 0,
      "inputModuleId": 25,
      "inputId": 6
    },
    {
      "color": "#c9b70e",
      "outputModuleId": 31,
      "outputId": 1,
      "inputModuleId": 32,
      "inputId": 16
    },
    {
      "color": "#c91847",
      "outputModuleId": 31,
      "outputId": 2,
      "inputModuleId": 32,
      "inputId": 19
    },
    {
      "color": "#0c8e15",
      "outputModuleId": 31,
      "outputId": 3,
      "inputModuleId": 32,
      "inputId": 22
    },
    {
      "color": "#0986ad",
      "outputModuleId": 32,
      "outputId": 0,
      "inputModuleId": 27,
      "inputId": 2
    },
    {
      "color": "#c9b70e",
      "outputModuleId": 32,
      "outputId": 1,
      "inputModuleId": 33,
      "inputId": 2
    },
    {
      "color": "#c91847",
      "outputModuleId": 14,
      "outputId": 0,
      "inputModuleId": 16,
      "inputId": 3
    },
    {
      "color": "#0c8e15",
      "outputModuleId": 14,
      "outputId": 1,
      "inputModuleId": 16,
      "inputId": 0
    },
    {
      "color": "#0986ad",
      "outputModuleId": 24,
      "outputId": 1,
      "inputModuleId": 10,
      "inputId": 4
    },
    {
      "color": "#c9b70e",
      "outputModuleId": 0,
      "outputId": 4,
      "inputModuleId": 23,
      "inputId": 5
    },
    {
      "color": "#c91847",
      "outputModuleId": 10,
      "outputId": 4,
      "inputModuleId": 0,
      "inputId": 0
    },
    {
      "color": "#0c8e15",
      "outputModuleId": 24,
      "outputId": 0,
      "inputModuleId": 31,
      "inputId": 0
    },
    {
      "color": "#0986ad",
      "outputModuleId": 24,
      "outputId": 1,
      "inputModuleId": 31,
      "inputId": 1
    },
    {
      "color": "#c91847",
      "outputModuleId": 0,
      "outputId": 6,
      "inputModuleId": 30,
      "inputId": 8
    },
    {
      "color": "#0c8e15",
      "outputModuleId": 30,
      "outputId": 0,
      "inputModuleId": 26,
      "inputId": 5
    },
    {
      "color": "#0986ad",
      "outputModuleId": 18,
      "outputId": 0,
      "inputModuleId": 30,
      "inputId": 5
    },
    {
      "color": "#c9b70e",
      "outputModuleId": 18,
      "outputId": 0,
      "inputModuleId": 30,
      "inputId": 7
    },
    {
      "color": "#c91847",
      "outputModuleId": 18,
      "outputId": 0,
      "inputModuleId": 30,
      "inputId": 4
    },
    {
      "color": "#0986ad",
      "outputModuleId": 18,
      "outputId": 1,
      "inputModuleId": 23,
      "inputId": 2
    },
    {
      "color": "#c9b70e",
      "outputModuleId": 26,
      "outputId": 1,
      "inputModuleId": 31,
      "inputId": 2
    },
    {
      "color": "#c91847",
      "outputModuleId": 11,
      "outputId": 0,
      "inputModuleId": 30,
      "inputId": 11
    },
    {
      "color": "#0986ad",
      "outputModuleId": 19,
      "outputId": 0,
      "inputModuleId": 3,
      "inputId": 0
    },
    {
      "color": "#c9b70e",
      "outputModuleId": 18,
      "outputId": 0,
      "inputModuleId": 26,
      "inputId": 0
    },
    {
      "color": "#c91847",
      "outputModuleId": 1,
      "outputId": 0,
      "inputModuleId": 2,
      "inputId": 0
    },
    {
      "color": "#0c8e15",
      "outputModuleId": 1,
      "outputId": 1,
      "inputModuleId": 2,
      "inputId": 1
    },
    {
      "color": "#0986ad",
      "outputModuleId": 10,
      "outputId": 0,
      "inputModuleId": 4,
      "inputId": 3
    },
    {
      "color": "#0c8e15",
      "outputModuleId": 30,
      "outputId": 0,
      "inputModuleId": 0,
      "inputId": 1
    },
    {
      "color": "#0986ad",
      "outputModuleId": 18,
      "outputId": 0,
      "inputModuleId": 10,
      "inputId": 2
    },
    {
      "color": "#c9b70e",
      "outputModuleId": 28,
      "outputId": 0,
      "inputModuleId": 25,
      "inputId": 7
    },
    {
      "color": "#0986ad",
      "outputModuleId": 15,
      "outputId": 0,
      "inputModuleId": 29,
      "inputId": 9
    },
    {
      "color": "#c9b70e",
      "outputModuleId": 15,
      "outputId": 0,
      "inputModuleId": 29,
      "inputId": 10
    },
    {
      "color": "#c91847",
      "outputModuleId": 29,
      "outputId": 2,
      "inputModuleId": 3,
      "inputId": 2
    },
    {
      "color": "#0c8e15",
      "outputModuleId": 29,
      "outputId": 3,
      "inputModuleId": 3,
      "inputId": 3
    },
    {
      "color": "#c91847",
      "outputModuleId": 16,
      "outputId": 1,
      "inputModuleId": 9,
      "inputId": 0
    },
    {
      "color": "#0c8e15",
      "outputModuleId": 16,
      "outputId": 0,
      "inputModuleId": 9,
      "inputId": 1
    },
    {
      "color": "#0986ad",
      "outputModuleId": 32,
      "outputId": 0,
      "inputModuleId": 27,
      "inputId": 3
    },
    {
      "color": "#c9b70e",
      "outputModuleId": 32,
      "outputId": 1,
      "inputModuleId": 33,
      "inputId": 3
    },
    {
      "color": "#c91847",
      "outputModuleId": 33,
      "outputId": 0,
      "inputModuleId": 14,
      "inputId": 1
    },
    {
      "color": "#0c8e15",
      "outputModuleId": 27,
      "outputId": 0,
      "inputModuleId": 14,
      "inputId": 0
    },
    {
      "color": "#c9b70e",
      "outputModuleId": 0,
      "outputId": 5,
      "inputModuleId": 23,
      "inputId": 14
    },
    {
      "color": "#c9b70e",
      "outputModuleId": 25,
      "outputId": 1,
      "inputModuleId": 23,
      "inputId": 1
    },
    {
      "color": "#c9b70e",
      "outputModuleId": 0,
      "outputId": 4,
      "inputModuleId": 6,
      "inputId": 3
    },
    {
      "color": "#c91847",
      "outputModuleId": 23,
      "outputId": 1,
      "inputModuleId": 29,
      "inputId": 1
    },
    {
      "color": "#0986ad",
      "outputModuleId": 25,
      "outputId": 0,
      "inputModuleId": 15,
      "inputId": 0
    },
    {
      "color": "#c9b70e",
      "outputModuleId": 18,
      "outputId": 2,
      "inputModuleId": 5,
      "inputId": 4
    },
    {
      "color": "#0c8e15",
      "outputModuleId": 18,
      "outputId": 2,
      "inputModuleId": 4,
      "inputId": 4
    },
    {
      "color": "#0986ad",
      "outputModuleId": 10,
      "outputId": 2,
      "inputModuleId": 5,
      "inputId": 3
    },
    {
      "color": "#c91847",
      "outputModuleId": 2,
      "outputId": 3,
      "inputModuleId": 11,
      "inputId": 8
    },
    {
      "color": "#0c8e15",
      "outputModuleId": 8,
      "outputId": 2,
      "inputModuleId": 12,
      "inputId": 1
    },
    {
      "color": "#c9b70e",
      "outputModuleId": 34,
      "outputId": 0,
      "inputModuleId": 19,
      "inputId": 2
    },
    {
      "color": "#c91847",
      "outputModuleId": 34,
      "outputId": 1,
      "inputModuleId": 35,
      "inputId": 2
    },
    {
      "color": "#0c8e15",
      "outputModuleId": 35,
      "outputId": 0,
      "inputModuleId": 3,
      "inputId": 1
    },
    {
      "color": "#c9b70e",
      "outputModuleId": 36,
      "outputId": 2,
      "inputModuleId": 34,
      "inputId": 1
    },
    {
      "color": "#0986ad",
      "outputModuleId": 3,
      "outputId": 0,
      "inputModuleId": 0,
      "inputId": 5
    },
    {
      "color": "#c91847",
      "outputModuleId": 18,
      "outputId": 6,
      "inputModuleId": 0,
      "inputId": 2
    },
    {
      "color": "#0c8e15",
      "outputModuleId": 18,
      "outputId": 6,
      "inputModuleId": 0,
      "inputId": 3
    },
    {
      "color": "#0986ad",
      "outputModuleId": 36,
      "outputId": 0,
      "inputModuleId": 34,
      "inputId": 0
    },
    {
      "color": "#0c8e15",
      "outputModuleId": 18,
      "outputId": 0,
      "inputModuleId": 36,
      "inputId": 0
    },
    {
      "color": "#0986ad",
      "outputModuleId": 18,
      "outputId": 0,
      "inputModuleId": 36,
      "inputId": 2
    },
    {
      "color": "#c9b70e",
      "outputModuleId": 18,
      "outputId": 6,
      "inputModuleId": 36,
      "inputId": 1
    },
    {
      "color": "#c91847",
      "outputModuleId": 18,
      "outputId": 6,
      "inputModuleId": 36,
      "inputId": 3
    }
  ]
}